<?xml version="1.0" encoding="utf-8"?>
<!-- Generator: Adobe Illustrator 16.0.0, SVG Export Plug-In . SVG Version: 6.00 Build 0)  -->
<!DOCTYPE svg PUBLIC "-//W3C//DTD SVG 1.1//EN" "http://www.w3.org/Graphics/SVG/1.1/DTD/svg11.dtd">
<svg version="1.1" id="Layer_1" xmlns="http://www.w3.org/2000/svg" xmlns:xlink="http://www.w3.org/1999/xlink" x="0px" y="0px"
	 width="612px" height="792px" viewBox="0 0 612 792" enable-background="new 0 0 612 792" xml:space="preserve">
<g id="Layer_5" display="none">
	
		<linearGradient id="SVGID_1_" gradientUnits="userSpaceOnUse" x1="95.4155" y1="755.0596" x2="94.494" y2="288.561" gradientTransform="matrix(1 0 0 -1 219.04 895.3398)">
		<stop  offset="0" style="stop-color:#A35A87"/>
		<stop  offset="1" style="stop-color:#6B1687"/>
	</linearGradient>
	<path display="inline" fill="url(#SVGID_1_)" d="M547.146,426.319c0,67.04-28.289,127.479-73.579,170.029
		c-41.73,39.2-97.892,63.221-159.672,63.221c-64.929,0-123.648-26.521-165.938-69.33c-41.62-42.13-67.32-100.021-67.32-163.92
		c0-128.82,104.43-233.25,233.259-233.25C442.715,193.069,547.146,297.5,547.146,426.319z"/>
	<g id="Layer_4" display="inline">
		<path fill="#6F673F" d="M479.195,562.149c0,11.829-1.96,23.29-5.63,34.199c-41.73,39.2-97.892,63.221-159.671,63.221
			c-64.93,0-123.649-26.521-165.939-69.33c-2.47-9.05-3.77-18.45-3.77-28.091c0-73.18,75-132.5,167.51-132.5
			C404.205,429.649,479.195,488.97,479.195,562.149z"/>
		<ellipse opacity="0.3" enable-background="new    " cx="309.691" cy="456.316" rx="83.648" ry="33.277"/>
		<path fill="#FFFFFF" d="M359.865,563.315c0,1.656-1.344,3-3,3h-4.109c-1.656,0-3-1.344-3-3v-88c0-1.657,1.344-3,3-3h4.109
			c1.656,0,3,1.343,3,3V563.315z"/>
		<path fill="#FFFFFF" d="M272.171,542.53c0,1.354-1.343,2.452-3,2.452h-4.109c-1.657,0-3-1.099-3-2.452v-71.924
			c0-1.354,1.343-2.452,3-2.452h4.109c1.657,0,3,1.098,3,2.452V542.53z"/>
		<path fill="#6F673F" d="M393.34,444.927c0,18.379-53.476,44.667-83.646,44.667c-24.25,3.389-83.648-26.288-83.648-44.667
			s37.45-33.276,83.648-33.276C355.891,411.649,393.34,426.548,393.34,444.927z"/>
		<path opacity="0.3" fill="#060606" enable-background="new    " d="M285.058,429.649c0,0-85.962-2.5,14.423,56
			c0,0,137.885-51.531,33.385-56.017"/>
	</g>
	<g id="Layer_2" display="inline">
		<path fill="#D9B4A2" d="M332.865,453.316c0,1.656-9.211,10.666-11.334,10.666h-23.626c-2.122,0-12.848-9.01-12.848-10.666v-35.334
			c0-1.657,1.72-3,3.842-3h40.125c2.121,0,3.842,1.343,3.842,3V453.316z"/>
		<path fill="#D9B4A2" d="M404.551,334.509c0,1.758-1.238,3.185-2.769,3.185h-14.147c-1.529,0-2.769-1.426-2.769-3.185V289.94
			c0-1.758,1.239-3.184,2.769-3.184h14.147c1.528,0,2.769,1.425,2.769,3.184V334.509z"/>
		<path fill="#D9B4A2" d="M234.884,334.509c0,1.758-1.239,3.185-2.769,3.185h-14.147c-1.529,0-2.769-1.426-2.769-3.185V289.94
			c0-1.758,1.239-3.184,2.769-3.184h14.147c1.529,0,2.769,1.425,2.769,3.184V334.509z"/>
		<path opacity="0.1" enable-background="new    " d="M332.865,435.649c0,1.656-1.721,3-3.842,3h-40.125
			c-2.122,0-3.842-1.344-3.842-3v-35.334c0-1.657,1.72-3,3.842-3h40.125c2.121,0,3.842,1.343,3.842,3V435.649z"/>
		<path fill="#D9B4A2" d="M231.319,266.961c0,0-9.736,96.32,25.212,137.355c0,0,21.655,27.529,56.333,21
			c0,0,62.827,7.02,73.178-81.733l1.808-89.257C387.85,254.326,284.942,130.107,231.319,266.961z"/>
		<path fill="#271F1C" d="M232.14,332.524c0,0,0.563-50.451,8.765-52.934l11.83-14.714l3.677-34.272
			c0,0,73.051-38.431,113.814,19.294l6.39,30.25l5.75,10.746l3.921,40.662c0,0-1.814-39.794,9.579-44.801
			c0,0,28.82-50.627,2.161-72.602c0,0,10.451-15.457-13.573-18.063c0,0,14.872-11.219-58.771-37.309c0,0-68.939-2.658-68.158,39.368
			c0,0-27.301-10.094-36.372,6.128c0,0,10.654-11.974,25.351-6.153c0,0-46.833,12.432-31.303,47.236L232.14,332.524"/>
		<path fill="#271F1C" d="M325.54,290.289l4.283-6.724l1.519,3.149l27.1-4.818c0,0,12.259,4.09,15.096,6.93
			c2.838,2.84-8.258-4.193-31.945,1.863C341.591,290.688,326.479,294.908,325.54,290.289z"/>
		<path opacity="0.2" fill="#4B403B" enable-background="new    " d="M299.576,337.872h28.623
			C328.199,337.872,313.619,360.872,299.576,337.872z"/>
		<path fill="#271F1C" d="M353.516,368.319c0,12.889-17.74,23.33-39.631,23.33c-21.879,0-39.62-10.441-39.62-23.33H353.516z"/>
		<path fill="#FCFCFC" d="M346.365,368.319v4.279c0,1.96-1.285,3.551-2.854,3.551h-59.24c-1.58,0-2.855-1.591-2.855-3.551v-4.279
			H346.365z"/>
		<path fill="#271F1C" d="M299.48,291.434l-4.283-6.724l-1.52,3.149l-27.099-4.818c0,0-12.259,4.09-15.096,6.93
			c-2.838,2.84,8.258-4.193,31.945,1.863C283.43,291.833,298.543,296.053,299.48,291.434z"/>
	</g>
	<g id="Layer_3" display="inline">
		<path fill="#FFFFFF" d="M293.905,309.001c0,0-24.749-18.04-42.771,2.891C251.134,311.892,272.389,344.807,293.905,309.001z"/>
		
			<ellipse transform="matrix(-0.0039 1 -1 -0.0039 586.701 42.2891)" fill="#383138" cx="272.288" cy="313.352" rx="11.319" ry="9.163"/>
		<path fill="#271F1C" d="M293.905,309.001c0,0-25.3-17.637-42.729,3.224C251.176,312.225,263.897,285.424,293.905,309.001z"/>
		<path fill="#FFFFFF" d="M325.134,309.001c0,0,24.749-18.04,42.771,2.891C367.905,311.892,346.65,344.807,325.134,309.001z"/>
		
			<ellipse transform="matrix(-0.0039 -1 1 -0.0039 34.7681 661.3434)" fill="#383138" cx="346.774" cy="313.355" rx="11.319" ry="9.163"/>
		<path fill="#271F1C" d="M325.134,309.001c0,0,25.3-17.637,42.729,3.224C367.863,312.225,355.143,285.424,325.134,309.001z"/>
	</g>
	<g id="Layer_6" display="inline">
		<path fill="none" stroke="#EEC13F" stroke-miterlimit="10" d="M376.795,326.143c0,1.391-1.275,2.518-2.849,2.518h-47.703
			c-1.573,0-2.849-1.127-2.849-2.518v-25.802c0-1.39,1.274-2.518,2.849-2.518l46.727-3.486c1.573,0,2.849,1.127,2.849,2.518
			L376.795,326.143z"/>
		<path opacity="0.2" fill="#39B4D2" enable-background="new    " d="M243.833,326.869c0,1.39,1.275,2.517,2.849,2.517h47.703
			c1.573,0,2.849-1.127,2.849-2.517v-25.802c0-1.391-1.275-2.519-2.849-2.519l-46.726-3.486c-1.573,0-2.848,1.127-2.848,2.518
			L243.833,326.869z"/>
		<path opacity="0.2" fill="#39B4D2" enable-background="new    " d="M376.652,325.919c0,1.362-1.262,2.467-2.816,2.467H326.65
			c-1.557,0-2.817-1.104-2.817-2.467v-25.284c0-1.361,1.262-2.467,2.817-2.467l46.22-3.416c1.555,0,2.815,1.105,2.815,2.467
			L376.652,325.919z"/>
		<path fill="#EEC13F" stroke="#EEC13F" stroke-miterlimit="10" d="M383.63,307.028c0,1.656-1.6,3-3.573,3h-1.688
			c-1.975,0-3.574-1.344-3.574-3V301c0-1.657,1.6-3,3.574-3h1.688c1.975,0,3.573,1.343,3.573,3V307.028z"/>
		<path fill="none" stroke="#EEC13F" stroke-miterlimit="10" d="M243.833,326.869c0,1.39,1.275,2.517,2.849,2.517h47.703
			c1.573,0,2.849-1.127,2.849-2.517v-25.802c0-1.391-1.275-2.519-2.849-2.519l-46.726-3.486c-1.573,0-2.848,1.127-2.848,2.518
			L243.833,326.869z"/>
		<path fill="#EEC13F" stroke="#EEC13F" stroke-miterlimit="10" d="M233.838,307.028c0,1.656,1.947,3,4.353,3h2.053
			c2.404,0,4.352-1.344,4.352-3V301c0-1.657-1.948-3-4.352-3h-2.053c-2.405,0-4.353,1.343-4.353,3V307.028z"/>
		<path fill="#EEC13F" stroke="#EEC13F" stroke-miterlimit="10" d="M323.395,314.463c0,1.125-4.614,2.037-10.312,2.037h-4.866
			c-5.696,0-10.312-0.912-10.312-2.037v-4.092c0-1.125,4.615-2.037,10.312-2.037h4.866c5.696,0,10.312,0.912,10.312,2.037V314.463z"
			/>
	</g>
	<g id="Layer_8" display="inline">
		<path fill="#271F1C" d="M386.286,331.557L365,376.149c0,0-4.87,26.685-27.402,26.685c0,0-48.264,3.833-52.54-1.5
			c0,0-25.253-11.45-30.308-29.1l-22.61-39.71c0,0,2.527,70.44,26.86,82.458l29.667,14.65L315.592,436
			c0,0,34.164-9.682,40.331-18.018c0,0,23.17-22.681,23.29-37.998l1.787,1.682C381,381.667,387.953,348.84,386.286,331.557z"/>
		<path fill="#271F1C" d="M312.119,403c0,0,1.064-1.004-2.527-5.085c0,0-2.628,0.919-1.943,1.919c0,0-8.314-0.667-7.647-5
			c0,0,21.167,0,23.167-1.167s3.833,2.333-2.033,5.958"/>
	</g>
</g>
<g id="Layer_9">
	<g id="Layer_7">
		
			<linearGradient id="SVGID_2_" gradientUnits="userSpaceOnUse" x1="87.5688" y1="895.9414" x2="86.002" y2="102.7379" gradientTransform="matrix(1 0 0 -1 219.04 895.3398)">
			<stop  offset="0" style="stop-color:#A35A87"/>
			<stop  offset="1" style="stop-color:#6B1687"/>
		</linearGradient>
		<path fill="url(#SVGID_2_)" d="M0.415,0h610.819c1.53,0,2.786,1.268,2.786,2.819v786.343c0,1.57-1.256,2.838-2.787,2.838H0.415
			c-1.531,0-2.786-1.268-2.786-2.838V2.819C-2.371,1.268-1.116,0,0.415,0"/>
	</g>
	<path fill="#6F673F" d="M535.017,753.126c0,13.266-1.255,26.249-3.654,38.873H76.688c-2.399-12.606-3.655-25.607-3.655-38.873
		c0-120.589,103.426-218.335,231-218.335C431.604,534.791,535.017,632.538,535.017,753.126z"/>
	<ellipse opacity="0.3" enable-background="new    " cx="301.263" cy="578.731" rx="115.352" ry="54.834"/>
	<path fill="#FFFFFF" d="M370.453,755.046c0,2.729-1.854,4.944-4.137,4.944h-5.667c-2.284,0-4.138-2.215-4.138-4.944V610.039
		c0-2.73,1.854-4.943,4.138-4.943h5.667c2.283,0,4.137,2.213,4.137,4.943V755.046z"/>
	<path fill="#FFFFFF" d="M249.521,720.797c0,2.229-1.852,4.04-4.137,4.04h-5.666c-2.285,0-4.137-1.811-4.137-4.04V602.279
		c0-2.232,1.852-4.041,4.137-4.041h5.666c2.286,0,4.137,1.809,4.137,4.041V720.797z"/>
	<path fill="#6F673F" d="M416.614,559.964c0,30.284-73.743,73.603-115.35,73.603c-33.442,5.584-115.352-43.318-115.352-73.603
		c0-30.285,51.644-54.833,115.352-54.833C364.972,505.129,416.614,529.679,416.614,559.964z"/>
	<path opacity="0.3" fill="#060606" enable-background="new    " d="M267.293,534.79c0,0-118.542-4.12,19.889,92.277
		c0,0,190.145-84.915,46.039-92.306"/>
	<path fill="#D9B4A2" d="M333.22,573.788c0,2.729-12.702,17.576-15.63,17.576h-32.581c-2.925,0-17.717-14.848-17.717-17.576v-58.224
		c0-2.731,2.371-4.943,5.297-4.943h55.333c2.924,0,5.298,2.212,5.298,4.943V573.788z"/>
	<path fill="#D9B4A2" d="M432.074,378.015c0,2.897-1.708,5.248-3.817,5.248h-19.51c-2.109,0-3.817-2.35-3.817-5.248v-73.441
		c0-2.896,1.708-5.247,3.817-5.247h19.51c2.107,0,3.817,2.349,3.817,5.247V378.015z"/>
	<path fill="#D9B4A2" d="M198.102,378.015c0,2.897-1.709,5.248-3.818,5.248h-19.51c-2.108,0-3.818-2.35-3.818-5.248v-73.441
		c0-2.896,1.708-5.247,3.818-5.247h19.51c2.108,0,3.818,2.349,3.818,5.247V378.015z"/>
	<path opacity="0.1" enable-background="new    " d="M333.22,544.676c0,2.729-2.374,4.943-5.298,4.943h-55.333
		c-2.926,0-5.297-2.214-5.297-4.943v-58.224c0-2.73,2.371-4.943,5.297-4.943h55.333c2.924,0,5.298,2.213,5.298,4.943V544.676z"/>
	<path fill="#D9B4A2" d="M193.186,266.709c0,0-13.425,158.718,34.768,226.336c0,0,29.862,45.364,77.684,34.604
		c0,0,86.639,11.566,100.914-134.682l2.492-147.079C409.043,245.889,267.132,41.198,193.186,266.709z"/>
	<path fill="#271F1C" d="M194.318,374.746c0,0,0.776-83.134,12.086-87.225l16.314-24.246l5.071-56.474
		c0,0,100.739-63.328,156.952,31.793l8.812,49.846l7.929,17.708l5.407,67.002c0,0-2.502-65.574,13.21-73.823
		c0,0,39.743-83.424,2.98-119.635c0,0,14.412-25.469-18.718-29.764c0,0,20.508-18.487-81.046-61.478c0,0-95.068-4.381-93.99,64.871
		c0,0-37.648-16.633-50.158,10.097c0,0,14.692-19.73,34.959-10.139c0,0-64.583,20.486-43.167,77.836L194.318,374.746"/>
	<path fill="#271F1C" d="M323.118,305.149l5.907-11.08l2.093,5.188l37.371-7.938c0,0,16.905,6.739,20.817,11.419
		c3.913,4.68-11.388-6.91-44.053,3.07C345.252,305.807,324.412,312.761,323.118,305.149z"/>
	<path opacity="0.2" fill="#4B403B" enable-background="new    " d="M287.313,383.558h39.472
		C326.785,383.558,306.678,421.457,287.313,383.558z"/>
	<path fill="#271F1C" d="M361.697,433.729c0,21.238-24.465,38.443-54.651,38.443c-30.172,0-54.637-17.205-54.637-38.443H361.697z"/>
	<path fill="#FCFCFC" d="M351.836,433.729v7.052c0,3.229-1.772,5.851-3.936,5.851h-81.693c-2.178,0-3.937-2.621-3.937-5.851v-7.052
		H351.836z"/>
	<path fill="#271F1C" d="M287.181,307.036l-5.907-11.08l-2.095,5.188l-37.37-7.939c0,0-16.906,6.74-20.818,11.42
		c-3.914,4.68,11.389-6.91,44.054,3.069C265.048,307.693,285.889,314.647,287.181,307.036z"/>
	<path fill="#FFFFFF" d="M279.493,335.983c0,0-34.129-29.727-58.982,4.763C220.511,340.746,249.822,394.984,279.493,335.983z"/>
	<path fill="#383138" d="M249.622,361.805c-6.978-0.033-12.608-8.41-12.575-18.711c0.034-10.301,5.718-18.626,12.697-18.592
		c6.979,0.032,12.609,8.408,12.575,18.71C262.286,353.512,256.602,361.836,249.622,361.805z"/>
	<path fill="#271F1C" d="M279.493,335.983c0,0-34.89-29.063-58.924,5.312C220.569,341.295,238.111,297.132,279.493,335.983z"/>
	<path fill="#FFFFFF" d="M322.558,335.983c0,0,34.129-29.727,58.982,4.763C381.54,340.746,352.229,394.984,322.558,335.983z"/>
	<path fill="#383138" d="M352.34,324.507c6.978-0.035,12.661,8.29,12.696,18.592c0.032,10.3-5.597,18.678-12.575,18.71
		s-12.664-8.292-12.696-18.592C339.731,332.915,345.361,324.538,352.34,324.507z"/>
	<path fill="#271F1C" d="M322.558,335.983c0,0,34.889-29.063,58.925,5.312C381.482,341.295,363.94,297.132,322.558,335.983z"/>
	<path fill="none" stroke="#EEC13F" stroke-miterlimit="10" d="M393.798,364.229c0,2.291-1.758,4.148-3.927,4.148h-65.783
		c-2.17,0-3.929-1.857-3.929-4.148v-42.517c0-2.29,1.757-4.148,3.929-4.148l64.436-5.745c2.169,0,3.929,1.857,3.929,4.149
		L393.798,364.229z"/>
	<path opacity="0.2" fill="#39B4D2" enable-background="new    " d="M210.443,365.426c0,2.29,1.757,4.147,3.929,4.147h65.782
		c2.17,0,3.929-1.857,3.929-4.147V322.91c0-2.292-1.758-4.15-3.929-4.15l-64.435-5.744c-2.169,0-3.928,1.856-3.928,4.149
		L210.443,365.426z"/>
	<path opacity="0.2" fill="#39B4D2" enable-background="new    " d="M393.602,363.861c0,2.245-1.739,4.064-3.883,4.064h-65.069
		c-2.146,0-3.885-1.819-3.885-4.064v-41.664c0-2.244,1.739-4.065,3.885-4.065l63.736-5.629c2.145,0,3.883,1.821,3.883,4.066
		L393.602,363.861z"/>
	<path fill="#EEC13F" stroke="#EEC13F" stroke-miterlimit="10" d="M403.225,332.732c0,2.729-2.207,4.944-4.928,4.944h-2.327
		c-2.724,0-4.929-2.214-4.929-4.944v-9.933c0-2.731,2.205-4.944,4.929-4.944h2.327c2.724,0,4.928,2.212,4.928,4.944V332.732z"/>
	<path fill="none" stroke="#EEC13F" stroke-miterlimit="10" d="M210.443,365.426c0,2.29,1.757,4.147,3.929,4.147h65.782
		c2.17,0,3.929-1.857,3.929-4.147V322.91c0-2.292-1.758-4.15-3.929-4.15l-64.435-5.744c-2.169,0-3.928,1.856-3.928,4.149
		L210.443,365.426z"/>
	<path fill="#EEC13F" stroke="#EEC13F" stroke-miterlimit="10" d="M196.66,332.732c0,2.729,2.685,4.944,6.002,4.944h2.832
		c3.315,0,6.001-2.214,6.001-4.944v-9.933c0-2.731-2.687-4.944-6.001-4.944h-2.832c-3.316,0-6.002,2.212-6.002,4.944V332.732z"/>
	<path fill="#EEC13F" stroke="#EEC13F" stroke-miterlimit="10" d="M320.159,344.983c0,1.854-6.363,3.356-14.22,3.356h-6.71
		c-7.854,0-14.22-1.502-14.22-3.356v-6.743c0-1.854,6.365-3.357,14.22-3.357h6.71c7.856,0,14.22,1.503,14.22,3.357V344.983z"/>
</g>
<g id="Layer_1_1_" display="none">
	
		<image display="inline" overflow="visible" opacity="0.3" enable-background="new    " width="1535" height="2047" xlink:href="2A8DAE63.jpeg"  transform="matrix(0.2148 0 0 0.2148 141.1055 176.1406)">
	</image>
</g>
</svg>
